# xmcd CD database file
#
# Track frame offsets:
#	150
#	23946
#	34904
#
# Disc length: 683 seconds
#
# Revision: 0
# Processed by: cddbd v1.5.1PL0 Copyright (c) Steve Scherf et al.
# Submitted via: CDex 1.51
#
DISCID=1e02a903
DTITLE=Stan Getz and Joao Gilberto - The Girl From Ipanema
DYEAR=1967
DGENRE=Jazz
TTITLE0=The Girl From Ipanema (Long Version)
TTITLE1=Take Me To Aruanda
TTITLE2=The Girl From Ipanema (7 Inch Version
EXTD=YEAR: 1967
EXTT0=
EXTT1=
EXTT2=
PLAYORDER=
